Coordinates
version=1
nRows=7
nColumns=40
inDegrees=yes

Units are S.I. units (second, meters, Newtons, ...)
Angles are in degrees.

endheader
time	pelvis_tilt	pelvis_list	pelvis_rotation	pelvis_tx	pelvis_ty	pelvis_tz	hip_flexion_r	hip_adduction_r	hip_rotation_r	knee_angle_r	knee_angle_r_beta	ankle_angle_r	subtalar_angle_r	mtp_angle_r	hip_flexion_l	hip_adduction_l	hip_rotation_l	knee_angle_l	knee_angle_l_beta	ankle_angle_l	subtalar_angle_l	mtp_angle_l	lumbar_extension	lumbar_bending	lumbar_rotation	arm_flex_r	arm_add_r	arm_rot_r	elbow_flex_r	pro_sup_r	wrist_flex_r	wrist_dev_r	arm_flex_l	arm_add_l	arm_rot_l	elbow_flex_l	pro_sup_l	wrist_flex_l	wrist_dev_l
      0.91000000	     -2.30451142	     -3.33362556	      5.13152614	      0.15454286	      0.93006252	      1.04076042	     26.97353139	     -1.13702674	    -18.60690473	    -23.94833976	     -0.41797738	     -6.37944732	     -9.17232964	     -2.22773454	    -11.78110360	     10.05540876	     15.92333019	    -28.35363508	     -0.49486429	     -4.50362103	     -5.63455837	    -13.28446252	     -1.34854922	      3.56740622	    -10.44944490	     -7.96525968	    -10.55932685	    -16.04307352	     14.20550541	     89.95437384	      0.00000000	      0.00000000	      9.34381149	     13.77078774	      4.17879336	     39.28037827	     89.95437384	      0.00000000	      0.00000000
      0.92000000	     -2.03655252	     -3.55373260	      4.90316257	      0.16694945	      0.93167643	      1.04416440	     26.14068586	     -0.37662629	    -17.94541255	    -24.49524966	     -0.42752276	     -5.17812020	     -9.20542934	     -2.30739884	    -11.10877582	     10.73908278	     15.73185938	    -30.77287865	     -0.53708805	     -7.17202569	     -3.93936545	    -12.34403293	     -1.40077249	      3.69812902	    -10.03301697	     -7.68818762	    -10.62141204	    -15.67646635	     13.86402773	     89.95437384	      0.00000000	      0.00000000	      8.54435104	     13.44916534	      4.34732842	     37.88400455	     89.95437384	      0.00000000	      0.00000000
      0.93000000	     -2.05320615	     -4.58380156	      4.82346441	      0.17858099	      0.93294296	      1.04809059	     25.26938666	      1.43866832	    -17.19006928	    -24.04077817	     -0.41959073	     -4.07850073	    -10.50358561	      2.31915813	     -9.56956326	     12.43254202	     15.31628721	    -33.86821632	     -0.59111189	     -9.68495825	     -2.16073724	    -11.59912745	     -1.15238284	      4.66862199	     -9.77342507	     -7.38536643	    -10.74505909	    -15.48882958	     13.72560039	     89.95437384	      0.00000000	      0.00000000	      7.74512155	     12.98376379	      4.91207107	     36.48467619	     89.95437384	      0.00000000	      0.00000000
      0.94000000	     -2.08904849	     -5.07506716	      4.73596009	      0.18977277	      0.93436271	      1.05132940	     24.41719466	      2.40818198	    -17.04357142	    -23.72768336	     -0.41412620	     -3.30080111	    -10.52632300	      2.22354419	     -7.95116491	     13.27650611	     14.38055396	    -36.76902534	     -0.64174055	    -11.78069627	     -0.04474286	    -10.92853413	     -0.96764190	      5.07403870	     -9.47359283	     -6.97807430	    -10.81004252	    -15.51563111	     13.51855660	     89.95437384	      0.00000000	      0.00000000	      7.04343162	     12.60007540	      5.15008110	     34.93146099	     89.95437384	      0.00000000	      0.00000000
      0.95000000	     -2.27566208	     -5.55247461	      4.71686486	      0.20034407	      0.93561105	      1.05428651	     23.75883033	      3.28652554	    -16.92789983	    -23.39269636	     -0.40827957	     -2.67980544	    -10.56980143	      2.23140214	     -5.91112894	     14.02317549	     13.26932647	    -39.93262437	     -0.69695577	    -12.60937664	      2.33293898	    -10.54975495	     -0.67025316	      5.45976291	     -9.19724575	     -6.56440821	    -10.86448056	    -15.77182342	     13.48518582	     89.95437384	      0.00000000	      0.00000000	      6.43176333	     12.21672945	      5.30127302	     33.23588960	     89.95437384	      0.00000000	      0.00000000
      0.96000000	     -2.39807260	     -5.91975237	      4.67081716	      0.21063840	      0.93695019	      1.05687662	     23.04330476	      3.99507156	    -16.85139086	    -23.08011515	     -0.40282400	     -1.87488250	    -10.42826477	      2.15116815	     -3.89972662	     14.58188990	     12.36889014	    -43.08951590	     -0.75205393	    -11.72564351	      4.93745782	    -10.46176368	     -0.50431954	      5.76719872	     -8.82992846	     -6.08216254	    -10.96649623	    -15.98394074	     13.38187529	     89.95437384	      0.00000000	      0.00000000	      6.03011265	     11.81434931	      5.28772922	     31.29106834	     89.95437384	      0.00000000	      0.00000000
      0.97000000	     -3.00346143	     -6.05634362	      4.79580585	      0.22013716	      0.93755585	      1.05879679	     22.94867389	      4.23914162	    -17.06789607	    -22.85777246	     -0.39894339	     -1.58593089	    -10.33913284	      2.21011262	     -1.03981380	     14.77194422	     11.48472999	    -46.42423102	     -0.81025568	    -10.17911053	      8.42289286	    -10.16176388	      0.15287545	      5.78349720	     -8.68111648	     -5.79247010	    -11.03126221	    -16.37029375	     13.79456386	     89.95437384	      0.00000000	      0.00000000	      5.42236852	     11.44514369	      5.45536897	     29.66951589	     89.95437384	      0.00000000	      0.00000000
